<svg width="50" height="50" viewBox="0 0 50 50" fill="none" xmlns="http://www.w3.org/2000/svg">
<path opacity="0.4" d="M37.4987 6.25C42.1011 6.25 45.832 9.98096 45.832 14.5833L45.832 35.4167C45.832 40.019 42.1011 43.75 37.4987 43.75L12.4987 43.75C7.89633 43.75 4.16537 40.019 4.16537 35.4167L4.16537 14.5833C4.16537 9.98096 7.89633 6.25 12.4987 6.25L37.4987 6.25Z" fill="#0000DE"/>
<circle cx="12.4993" cy="35.4163" r="2.08333" fill="#0000DE"/>
<path d="M4.16537 14.583L45.832 14.583L45.832 22.9163L4.16537 22.9163L4.16537 14.583Z" fill="#0000DE"/>
<path fill-rule="evenodd" clip-rule="evenodd" d="M46.861 34.2411C47.5104 34.8094 47.5762 35.7965 47.008 36.4459L41.029 43.279C39.7442 44.7474 37.5312 44.944 36.0077 43.7252L32.356 40.8038C31.6822 40.2647 31.5729 39.2814 32.112 38.6076C32.6511 37.9337 33.6343 37.8245 34.3082 38.3636L37.9599 41.2849C38.1775 41.4591 38.4937 41.431 38.6772 41.2212L44.6562 34.3881C45.2244 33.7387 46.2116 33.6729 46.861 34.2411Z" fill="#0000DE"/>
</svg>
