<svg width="82" height="82" viewBox="0 0 82 82" fill="none" xmlns="http://www.w3.org/2000/svg">
<circle cx="41" cy="41" r="41" fill="#0000DE" fill-opacity="0.4"/>
<circle cx="41.0016" cy="40.9997" r="31.027" fill="#0000DE"/>
<path fill-rule="evenodd" clip-rule="evenodd" d="M37.5031 27.9805H38.7497C42.2757 27.9805 44.0387 27.9805 45.1341 29.0758C46.2295 30.1712 46.2295 31.9342 46.2295 35.4602V45.7449H48.1884C49.6884 45.7449 50.9043 46.9608 50.9043 48.4607V48.5498C50.9043 49.0661 51.3229 49.4847 51.8393 49.4847C52.3556 49.4847 52.7742 49.0661 52.7742 48.5498V42.6283L51.2479 42.1195C50.4844 41.865 49.9693 41.1504 49.9693 40.3455V37.3301C49.9693 36.2974 50.8065 35.4602 51.8393 35.4602H52.7742V34.9896C52.7742 34.7589 52.7739 34.6796 52.7698 34.6072C52.7282 33.8659 52.3944 33.1715 51.8416 32.6759C51.7876 32.6275 51.7259 32.5777 51.5458 32.4336L50.0086 31.2038C49.6054 30.8813 49.54 30.2929 49.8626 29.8897C50.1851 29.4865 50.7735 29.4211 51.1767 29.7437L52.7341 30.9895C52.8866 31.1115 52.9918 31.1957 53.0898 31.2835C54.0111 32.1095 54.5674 33.2669 54.6368 34.5023C54.6442 34.6337 54.6442 34.7685 54.6442 34.9638V48.5498C54.6442 50.0989 53.3884 51.3547 51.8393 51.3547C50.2902 51.3547 49.0344 50.0989 49.0344 48.5498V48.4607C49.0344 47.9935 48.6556 47.6148 48.1884 47.6148H46.2295V51.9779H47.63C48.1463 51.9779 48.5649 52.3965 48.5649 52.9129C48.5649 53.4293 48.1463 53.8479 47.63 53.8479H28.7768C28.2604 53.8479 27.8418 53.4293 27.8418 52.9129C27.8418 52.3965 28.2604 51.9779 28.7768 51.9779H30.0234V35.4602C30.0234 31.9342 30.0234 30.1712 31.1188 29.0758C32.2141 27.9805 33.9771 27.9805 37.5031 27.9805ZM35.3215 45.7448C34.8052 45.7448 34.3866 46.1634 34.3866 46.6798C34.3866 47.1962 34.8052 47.6148 35.3215 47.6148H41.5546C42.071 47.6148 42.4896 47.1962 42.4896 46.6798C42.4896 46.1634 42.071 45.7448 41.5546 45.7448H35.3215ZM40.308 32.967H36.5681C35.3928 32.967 34.8052 32.967 34.44 33.3321C34.0749 33.6972 34.0749 34.2849 34.0749 35.4602C34.0749 36.6355 34.0749 37.2232 34.44 37.5883C34.8052 37.9534 35.3928 37.9534 36.5681 37.9534H40.308C41.4833 37.9534 42.071 37.9534 42.4361 37.5883C42.8013 37.2232 42.8013 36.6355 42.8013 35.4602C42.8013 34.2849 42.8013 33.6972 42.4361 33.3321C42.071 32.967 41.4833 32.967 40.308 32.967Z" fill="white"/>
</svg>
