<svg width="224" height="115" viewBox="0 0 224 115" fill="none" xmlns="http://www.w3.org/2000/svg">
<rect width="224" height="115" rx="15" fill="#0000DE"/>
<path d="M28.856 31.8V57H26.264V34.104H20.324V31.8H28.856ZM43.4478 42.6C46.0878 42.744 48.0918 43.464 49.4598 44.76C50.8518 46.032 51.5478 47.7 51.5478 49.764C51.5478 51.204 51.1998 52.488 50.5038 53.616C49.8078 54.72 48.7758 55.596 47.4078 56.244C46.0398 56.892 44.3718 57.216 42.4038 57.216C40.5798 57.216 38.8518 56.928 37.2198 56.352C35.6118 55.752 34.3158 54.96 33.3318 53.976L34.5918 51.924C35.4318 52.788 36.5478 53.496 37.9398 54.048C39.3318 54.576 40.8198 54.84 42.4038 54.84C44.4678 54.84 46.0638 54.396 47.1918 53.508C48.3198 52.596 48.8838 51.348 48.8838 49.764C48.8838 48.204 48.3198 46.98 47.1918 46.092C46.0638 45.204 44.3598 44.76 42.0798 44.76H40.2798V42.852L47.2638 34.104H34.3758V31.8H50.5758V33.636L43.4478 42.6ZM83.126 50.268H69.086L66.062 57H63.29L74.81 31.8H77.438L88.958 57H86.15L83.126 50.268ZM82.154 48.108L76.106 34.572L70.058 48.108H82.154ZM104.731 43.824C106.387 44.232 107.683 44.976 108.619 46.056C109.579 47.136 110.059 48.432 110.059 49.944C110.059 51.408 109.603 52.692 108.691 53.796C107.779 54.9 106.567 55.752 105.055 56.352C103.543 56.928 101.899 57.216 100.123 57.216C98.4431 57.216 96.7871 56.952 95.1551 56.424C93.5471 55.872 92.0951 55.056 90.7991 53.976L91.7711 52.068C92.8751 53.004 94.1351 53.724 95.5511 54.228C96.9671 54.708 98.3951 54.948 99.8351 54.948C101.203 54.948 102.463 54.732 103.615 54.3C104.767 53.868 105.679 53.256 106.351 52.464C107.047 51.648 107.395 50.688 107.395 49.584C107.395 48.12 106.819 46.992 105.667 46.2C104.515 45.408 102.895 45.012 100.807 45.012H95.4071V42.852H100.663C102.439 42.852 103.819 42.48 104.803 41.736C105.811 40.968 106.315 39.912 106.315 38.568C106.315 37.08 105.679 35.916 104.407 35.076C103.135 34.212 101.539 33.78 99.6191 33.78C98.4191 33.78 97.2071 33.96 95.9831 34.32C94.7591 34.656 93.5951 35.172 92.4911 35.868L91.5911 33.672C94.0871 32.184 96.7871 31.44 99.6911 31.44C101.395 31.44 102.955 31.716 104.371 32.268C105.787 32.82 106.903 33.612 107.719 34.644C108.559 35.676 108.979 36.888 108.979 38.28C108.979 39.624 108.607 40.788 107.863 41.772C107.119 42.732 106.075 43.416 104.731 43.824ZM127.69 57.216C125.194 57.216 122.938 56.664 120.922 55.56C118.93 54.456 117.358 52.932 116.206 50.988C115.078 49.02 114.514 46.824 114.514 44.4C114.514 41.976 115.078 39.792 116.206 37.848C117.358 35.88 118.942 34.344 120.958 33.24C122.974 32.136 125.23 31.584 127.726 31.584C129.598 31.584 131.326 31.896 132.91 32.52C134.494 33.144 135.838 34.056 136.942 35.256L135.25 36.948C133.282 34.956 130.798 33.96 127.798 33.96C125.806 33.96 123.994 34.416 122.362 35.328C120.73 36.24 119.446 37.488 118.51 39.072C117.598 40.656 117.142 42.432 117.142 44.4C117.142 46.368 117.598 48.144 118.51 49.728C119.446 51.312 120.73 52.56 122.362 53.472C123.994 54.384 125.806 54.84 127.798 54.84C130.822 54.84 133.306 53.832 135.25 51.816L136.942 53.508C135.838 54.708 134.482 55.632 132.874 56.28C131.29 56.904 129.562 57.216 127.69 57.216Z" fill="white"/>
<path d="M26.976 81.648C28.1173 81.9147 28.688 82.6027 28.688 83.712C28.688 84.448 28.416 85.0133 27.872 85.408C27.328 85.8027 26.5173 86 25.44 86H21.616V77.584H25.328C26.288 77.584 27.04 77.7707 27.584 78.144C28.128 78.5173 28.4 79.0507 28.4 79.744C28.4 80.2027 28.272 80.5973 28.016 80.928C27.7707 81.248 27.424 81.488 26.976 81.648ZM22.72 81.328H25.248C25.8987 81.328 26.3947 81.2053 26.736 80.96C27.088 80.7147 27.264 80.3573 27.264 79.888C27.264 79.4187 27.088 79.0667 26.736 78.832C26.3947 78.5973 25.8987 78.48 25.248 78.48H22.72V81.328ZM25.392 85.104C26.1173 85.104 26.6613 84.9867 27.024 84.752C27.3867 84.5173 27.568 84.1493 27.568 83.648C27.568 83.1467 27.4027 82.7787 27.072 82.544C26.7413 82.2987 26.2187 82.176 25.504 82.176H22.72V85.104H25.392ZM39.5219 80.864H36.9619V86H35.8099V74.8H36.9619V79.824H39.5219L43.3139 74.8H44.5939L40.4339 80.24L44.8339 86H43.4739L39.5219 80.864ZM50.952 77.52C51.7413 77.52 52.456 77.7013 53.096 78.064C53.736 78.416 54.2373 78.9173 54.6 79.568C54.9627 80.2187 55.144 80.96 55.144 81.792C55.144 82.6347 54.9627 83.3813 54.6 84.032C54.2373 84.6827 53.736 85.1893 53.096 85.552C52.4667 85.904 51.752 86.08 50.952 86.08C50.2693 86.08 49.6507 85.9413 49.096 85.664C48.552 85.376 48.104 84.96 47.752 84.416V89.104H46.616V77.584H47.704V79.248C48.0453 78.6933 48.4933 78.2667 49.048 77.968C49.6133 77.6693 50.248 77.52 50.952 77.52ZM50.872 85.072C51.4587 85.072 51.992 84.9387 52.472 84.672C52.952 84.3947 53.3253 84.0053 53.592 83.504C53.8693 83.0027 54.008 82.432 54.008 81.792C54.008 81.152 53.8693 80.5867 53.592 80.096C53.3253 79.5947 52.952 79.2053 52.472 78.928C51.992 78.6507 51.4587 78.512 50.872 78.512C50.2747 78.512 49.736 78.6507 49.256 78.928C48.7867 79.2053 48.4133 79.5947 48.136 80.096C47.8693 80.5867 47.736 81.152 47.736 81.792C47.736 82.432 47.8693 83.0027 48.136 83.504C48.4133 84.0053 48.7867 84.3947 49.256 84.672C49.736 84.9387 50.2747 85.072 50.872 85.072ZM60.4339 77.52C61.5325 77.52 62.3752 77.7973 62.9619 78.352C63.5485 78.896 63.8419 79.7067 63.8419 80.784V86H62.7539V84.688C62.4979 85.1253 62.1192 85.4667 61.6179 85.712C61.1272 85.9573 60.5405 86.08 59.8579 86.08C58.9192 86.08 58.1725 85.856 57.6179 85.408C57.0632 84.96 56.7859 84.368 56.7859 83.632C56.7859 82.9173 57.0419 82.3413 57.5539 81.904C58.0765 81.4667 58.9032 81.248 60.0339 81.248H62.7059V80.736C62.7059 80.0107 62.5032 79.4613 62.0979 79.088C61.6925 78.704 61.1005 78.512 60.3219 78.512C59.7885 78.512 59.2765 78.6027 58.7859 78.784C58.2952 78.9547 57.8739 79.1947 57.5219 79.504L57.0099 78.656C57.4365 78.2933 57.9485 78.016 58.5459 77.824C59.1432 77.6213 59.7725 77.52 60.4339 77.52ZM60.0339 85.184C60.6739 85.184 61.2232 85.04 61.6819 84.752C62.1405 84.4533 62.4819 84.0267 62.7059 83.472V82.096H60.0659C58.6259 82.096 57.9059 82.5973 57.9059 83.6C57.9059 84.0907 58.0925 84.48 58.4659 84.768C58.8392 85.0453 59.3619 85.184 60.0339 85.184ZM70.386 86.08C69.554 86.08 68.8073 85.8987 68.146 85.536C67.4953 85.1733 66.9833 84.6667 66.61 84.016C66.2367 83.3547 66.05 82.6133 66.05 81.792C66.05 80.9707 66.2367 80.2347 66.61 79.584C66.9833 78.9333 67.4953 78.4267 68.146 78.064C68.8073 77.7013 69.554 77.52 70.386 77.52C71.1113 77.52 71.7567 77.664 72.322 77.952C72.898 78.2293 73.3513 78.64 73.682 79.184L72.834 79.76C72.5567 79.344 72.2047 79.0347 71.778 78.832C71.3513 78.6187 70.8873 78.512 70.386 78.512C69.778 78.512 69.2287 78.6507 68.738 78.928C68.258 79.1947 67.8793 79.5787 67.602 80.08C67.3353 80.5813 67.202 81.152 67.202 81.792C67.202 82.4427 67.3353 83.0187 67.602 83.52C67.8793 84.0107 68.258 84.3947 68.738 84.672C69.2287 84.9387 69.778 85.072 70.386 85.072C70.8873 85.072 71.3513 84.9707 71.778 84.768C72.2047 84.5653 72.5567 84.256 72.834 83.84L73.682 84.416C73.3513 84.96 72.898 85.376 72.322 85.664C71.746 85.9413 71.1007 86.08 70.386 86.08ZM75.8816 77.584H77.0176V81.312H82.3136V77.584H83.4496V86H82.3136V82.288H77.0176V86H75.8816V77.584ZM90.1505 86.08C89.3398 86.08 88.6092 85.8987 87.9585 85.536C87.3078 85.1627 86.7958 84.6507 86.4225 84C86.0492 83.3493 85.8625 82.6133 85.8625 81.792C85.8625 80.9707 86.0492 80.2347 86.4225 79.584C86.7958 78.9333 87.3078 78.4267 87.9585 78.064C88.6092 77.7013 89.3398 77.52 90.1505 77.52C90.9612 77.52 91.6918 77.7013 92.3425 78.064C92.9932 78.4267 93.4998 78.9333 93.8625 79.584C94.2358 80.2347 94.4225 80.9707 94.4225 81.792C94.4225 82.6133 94.2358 83.3493 93.8625 84C93.4998 84.6507 92.9932 85.1627 92.3425 85.536C91.6918 85.8987 90.9612 86.08 90.1505 86.08ZM90.1505 85.072C90.7478 85.072 91.2812 84.9387 91.7505 84.672C92.2305 84.3947 92.6038 84.0053 92.8705 83.504C93.1372 83.0027 93.2705 82.432 93.2705 81.792C93.2705 81.152 93.1372 80.5813 92.8705 80.08C92.6038 79.5787 92.2305 79.1947 91.7505 78.928C91.2812 78.6507 90.7478 78.512 90.1505 78.512C89.5532 78.512 89.0145 78.6507 88.5345 78.928C88.0652 79.1947 87.6918 79.5787 87.4145 80.08C87.1478 80.5813 87.0145 81.152 87.0145 81.792C87.0145 82.432 87.1478 83.0027 87.4145 83.504C87.6918 84.0053 88.0652 84.3947 88.5345 84.672C89.0145 84.9387 89.5532 85.072 90.1505 85.072ZM103.017 77.584V86H101.978V83.216H99.3375H99.0175L97.0655 86H95.8335L97.9295 83.056C97.2788 82.8747 96.7775 82.5653 96.4255 82.128C96.0735 81.6907 95.8975 81.136 95.8975 80.464C95.8975 79.5253 96.2175 78.8107 96.8575 78.32C97.4975 77.8293 98.3722 77.584 99.4815 77.584H103.017ZM97.0495 80.496C97.0495 81.744 97.8442 82.368 99.4335 82.368H101.978V78.592H99.5135C97.8708 78.592 97.0495 79.2267 97.0495 80.496ZM110.593 77.52C111.382 77.52 112.097 77.7013 112.737 78.064C113.377 78.416 113.878 78.9173 114.241 79.568C114.603 80.2187 114.785 80.96 114.785 81.792C114.785 82.6347 114.603 83.3813 114.241 84.032C113.878 84.6827 113.377 85.1893 112.737 85.552C112.107 85.904 111.393 86.08 110.593 86.08C109.91 86.08 109.291 85.9413 108.737 85.664C108.193 85.376 107.745 84.96 107.393 84.416V89.104H106.257V77.584H107.345V79.248C107.686 78.6933 108.134 78.2667 108.689 77.968C109.254 77.6693 109.889 77.52 110.593 77.52ZM110.513 85.072C111.099 85.072 111.633 84.9387 112.113 84.672C112.593 84.3947 112.966 84.0053 113.233 83.504C113.51 83.0027 113.649 82.432 113.649 81.792C113.649 81.152 113.51 80.5867 113.233 80.096C112.966 79.5947 112.593 79.2053 112.113 78.928C111.633 78.6507 111.099 78.512 110.513 78.512C109.915 78.512 109.377 78.6507 108.897 78.928C108.427 79.2053 108.054 79.5947 107.777 80.096C107.51 80.5867 107.377 81.152 107.377 81.792C107.377 82.432 107.51 83.0027 107.777 83.504C108.054 84.0053 108.427 84.3947 108.897 84.672C109.377 84.9387 109.915 85.072 110.513 85.072ZM120.745 86.08C119.913 86.08 119.167 85.8987 118.505 85.536C117.855 85.1733 117.343 84.6667 116.969 84.016C116.596 83.3547 116.409 82.6133 116.409 81.792C116.409 80.9707 116.596 80.2347 116.969 79.584C117.343 78.9333 117.855 78.4267 118.505 78.064C119.167 77.7013 119.913 77.52 120.745 77.52C121.471 77.52 122.116 77.664 122.681 77.952C123.257 78.2293 123.711 78.64 124.041 79.184L123.193 79.76C122.916 79.344 122.564 79.0347 122.137 78.832C121.711 78.6187 121.247 78.512 120.745 78.512C120.137 78.512 119.588 78.6507 119.097 78.928C118.617 79.1947 118.239 79.5787 117.961 80.08C117.695 80.5813 117.561 81.152 117.561 81.792C117.561 82.4427 117.695 83.0187 117.961 83.52C118.239 84.0107 118.617 84.3947 119.097 84.672C119.588 84.9387 120.137 85.072 120.745 85.072C121.247 85.072 121.711 84.9707 122.137 84.768C122.564 84.5653 122.916 84.256 123.193 83.84L124.041 84.416C123.711 84.96 123.257 85.376 122.681 85.664C122.105 85.9413 121.46 86.08 120.745 86.08ZM129.297 82.256H127.377V86H126.241V77.584H127.377V81.28H129.313L132.273 77.584H133.505L130.193 81.664L133.745 86H132.401L129.297 82.256ZM138.713 86.08C137.902 86.08 137.172 85.8987 136.521 85.536C135.87 85.1627 135.358 84.6507 134.985 84C134.612 83.3493 134.425 82.6133 134.425 81.792C134.425 80.9707 134.612 80.2347 134.985 79.584C135.358 78.9333 135.87 78.4267 136.521 78.064C137.172 77.7013 137.902 77.52 138.713 77.52C139.524 77.52 140.254 77.7013 140.905 78.064C141.556 78.4267 142.062 78.9333 142.425 79.584C142.798 80.2347 142.985 80.9707 142.985 81.792C142.985 82.6133 142.798 83.3493 142.425 84C142.062 84.6507 141.556 85.1627 140.905 85.536C140.254 85.8987 139.524 86.08 138.713 86.08ZM138.713 85.072C139.31 85.072 139.844 84.9387 140.313 84.672C140.793 84.3947 141.166 84.0053 141.433 83.504C141.7 83.0027 141.833 82.432 141.833 81.792C141.833 81.152 141.7 80.5813 141.433 80.08C141.166 79.5787 140.793 79.1947 140.313 78.928C139.844 78.6507 139.31 78.512 138.713 78.512C138.116 78.512 137.577 78.6507 137.097 78.928C136.628 79.1947 136.254 79.5787 135.977 80.08C135.71 80.5813 135.577 81.152 135.577 81.792C135.577 82.432 135.71 83.0027 135.977 83.504C136.254 84.0053 136.628 84.3947 137.097 84.672C137.577 84.9387 138.116 85.072 138.713 85.072ZM154.821 77.584V86H153.781V79.344L150.373 84.976H149.861L146.453 79.328V86H145.413V77.584H146.565L150.133 83.648L153.765 77.584H154.821ZM165.297 82.256H163.377V86H162.241V77.584H163.377V81.28H165.313L168.273 77.584H169.505L166.193 81.664L169.745 86H168.401L165.297 82.256ZM175.874 77.52C176.663 77.52 177.378 77.7013 178.018 78.064C178.658 78.416 179.159 78.9173 179.522 79.568C179.885 80.2187 180.066 80.96 180.066 81.792C180.066 82.6347 179.885 83.3813 179.522 84.032C179.159 84.6827 178.658 85.1893 178.018 85.552C177.389 85.904 176.674 86.08 175.874 86.08C175.191 86.08 174.573 85.9413 174.018 85.664C173.474 85.376 173.026 84.96 172.674 84.416V89.104H171.538V77.584H172.626V79.248C172.967 78.6933 173.415 78.2667 173.97 77.968C174.535 77.6693 175.17 77.52 175.874 77.52ZM175.794 85.072C176.381 85.072 176.914 84.9387 177.394 84.672C177.874 84.3947 178.247 84.0053 178.514 83.504C178.791 83.0027 178.93 82.432 178.93 81.792C178.93 81.152 178.791 80.5867 178.514 80.096C178.247 79.5947 177.874 79.2053 177.394 78.928C176.914 78.6507 176.381 78.512 175.794 78.512C175.197 78.512 174.658 78.6507 174.178 78.928C173.709 79.2053 173.335 79.5947 173.058 80.096C172.791 80.5867 172.658 81.152 172.658 81.792C172.658 82.432 172.791 83.0027 173.058 83.504C173.335 84.0053 173.709 84.3947 174.178 84.672C174.658 84.9387 175.197 85.072 175.794 85.072ZM185.356 77.52C186.454 77.52 187.297 77.7973 187.884 78.352C188.47 78.896 188.764 79.7067 188.764 80.784V86H187.676V84.688C187.42 85.1253 187.041 85.4667 186.54 85.712C186.049 85.9573 185.462 86.08 184.78 86.08C183.841 86.08 183.094 85.856 182.54 85.408C181.985 84.96 181.708 84.368 181.708 83.632C181.708 82.9173 181.964 82.3413 182.476 81.904C182.998 81.4667 183.825 81.248 184.956 81.248H187.628V80.736C187.628 80.0107 187.425 79.4613 187.02 79.088C186.614 78.704 186.022 78.512 185.244 78.512C184.71 78.512 184.198 78.6027 183.708 78.784C183.217 78.9547 182.796 79.1947 182.444 79.504L181.932 78.656C182.358 78.2933 182.87 78.016 183.468 77.824C184.065 77.6213 184.694 77.52 185.356 77.52ZM184.956 85.184C185.596 85.184 186.145 85.04 186.604 84.752C187.062 84.4533 187.404 84.0267 187.628 83.472V82.096H184.988C183.548 82.096 182.828 82.5973 182.828 83.6C182.828 84.0907 183.014 84.48 183.388 84.768C183.761 85.0453 184.284 85.184 184.956 85.184ZM199.148 82.144H192.108C192.172 83.0187 192.508 83.728 193.116 84.272C193.724 84.8053 194.492 85.072 195.42 85.072C195.943 85.072 196.423 84.9813 196.86 84.8C197.297 84.608 197.676 84.3307 197.996 83.968L198.636 84.704C198.263 85.152 197.793 85.4933 197.228 85.728C196.673 85.9627 196.06 86.08 195.388 86.08C194.524 86.08 193.756 85.8987 193.084 85.536C192.423 85.1627 191.905 84.6507 191.532 84C191.159 83.3493 190.972 82.6133 190.972 81.792C190.972 80.9707 191.148 80.2347 191.5 79.584C191.863 78.9333 192.353 78.4267 192.972 78.064C193.601 77.7013 194.305 77.52 195.084 77.52C195.863 77.52 196.561 77.7013 197.18 78.064C197.799 78.4267 198.284 78.9333 198.636 79.584C198.988 80.224 199.164 80.96 199.164 81.792L199.148 82.144ZM195.084 78.496C194.273 78.496 193.591 78.7573 193.036 79.28C192.492 79.792 192.183 80.464 192.108 81.296H198.076C198.001 80.464 197.687 79.792 197.132 79.28C196.588 78.7573 195.905 78.496 195.084 78.496Z" fill="white"/>
<circle cx="200" cy="24" r="14" fill="white"/>
<path d="M203.589 24.0304V20.659C203.589 20.5229 203.471 20.4102 203.328 20.4102H199.788C199.645 20.4102 199.527 20.5229 199.527 20.659C199.527 20.7951 199.649 20.9118 199.792 20.9118L202.707 20.9157L196.134 27.1801C196.032 27.2773 196.019 27.4251 196.121 27.5223C196.224 27.6195 196.379 27.6079 196.481 27.5106L203.054 21.2501L203.058 24.0265C203.058 24.0965 203.091 24.1587 203.136 24.2054C203.185 24.252 203.25 24.2793 203.324 24.2793C203.471 24.2793 203.589 24.1665 203.589 24.0304Z" fill="#0000DE"/>
</svg>
